Coordinates
version=1
nRows=15
nColumns=26
inDegrees=yes

Units are S.I. units (second, meters, Newtons, ...)
If the header above contains a line with 'inDegrees', this indicates whether rotational values are in degrees (yes) or radians (no).

endheader
time	pelvis_tilt	pelvis_list	pelvis_rotation	pelvis_tx	pelvis_ty	pelvis_tz	hip_flexion_r	hip_adduction_r	hip_rotation_r	knee_angle_r	knee_angle_r_beta	ankle_angle_r	subtalar_angle_r	mtp_angle_r	hip_flexion_l	hip_adduction_l	hip_rotation_l	knee_angle_l	knee_angle_l_beta	ankle_angle_l	subtalar_angle_l	mtp_angle_l	lumbar_extension	lumbar_bending	lumbar_rotation
      0.60800000	     -4.22086442	      7.93899931	     11.97446177	     -0.66787054	      0.99194941	      0.17772932	    -15.30667356	     -5.82904425	    -14.84055593	    104.53905113	      1.82455064	    -13.95025727	      0.00000000	     47.94106752	     30.63593113	     12.58867274	    -10.66474632	     31.62292856	      0.55192422	      3.20315696	      0.00000000	     27.58405333	     -8.28613479	    -11.65422026	      5.16198534
      0.61200000	     -3.91924832	      7.55539173	     12.49394117	     -0.64159850	      0.98967661	      0.17742460	    -14.44595710	     -5.71183471	    -14.77486232	    107.43445733	      1.87508501	    -12.73880070	      0.00000000	     47.94773930	     29.11118387	     12.24327095	     -9.65692549	     32.03597828	      0.55913330	      3.50404833	      0.00000000	     14.45197536	     -8.59876907	    -11.28677095	      4.17742540
      0.61600000	     -3.56669335	      7.51705983	     12.96856284	     -0.61571098	      0.98763664	      0.17691720	    -13.68350387	     -6.06526522	    -14.73851907	    110.30888819	      1.92525329	    -11.53583623	      0.00000000	     47.46405815	     27.59130966	     12.37809132	     -9.00277953	     33.32801523	      0.58168360	      6.97860769	      0.00000000	     13.18799896	     -9.11986742	    -11.24314269	      3.12945159
      0.62000000	     -3.31083714	      7.53750254	     13.57554176	     -0.58961038	      0.98543063	      0.17618255	    -12.84720677	     -6.51859846	    -14.79413925	    113.04679054	      1.97303870	    -10.27391481	      0.00000000	     46.97753435	     26.08036907	     12.82101731	     -7.50702448	     34.62938466	      0.60439678	     10.43531286	      0.00000000	     11.97582922	     -9.54466511	    -11.27721016	      1.94952118
      0.62400000	     -3.40115094	      7.61672160	     13.90065995	     -0.56453333	      0.98277003	      0.17580666	    -11.40874619	     -7.22925526	    -14.40462130	    116.00664141	      2.02469785	     -8.86955655	      0.00000000	     46.44230244	     25.12160534	     13.24283898	     -6.12630044	     36.06182834	      0.62939764	     13.07491429	      0.00000000	     11.15261688	     -9.69897890	    -11.46093173	      1.03053117
      0.62800000	     -3.23008107	      7.95303695	     15.05015154	     -0.53880324	      0.98078235	      0.17386469	    -10.60367922	     -8.04733014	    -14.75843237	    118.59206522	      2.06982200	     -7.59941768	      0.00000000	     45.90290089	     23.57096273	     14.21597273	     -4.15433140	     37.25289112	      0.65018561	     15.42260799	      0.00000000	     11.13076732	    -10.27690520	    -11.71182476	     -0.70821279
      0.63200000	     -3.07479642	      8.20726670	     15.54373444	     -0.51431977	      0.97886661	      0.17323449	     -9.40469475	     -8.99208088	    -14.57863779	    121.19596642	      2.11526865	     -5.96397491	      0.00000000	     45.49241730	     22.47357249	     14.73003635	     -2.89766198	     38.87108403	      0.67842840	     17.29309707	      0.00000000	     11.21451851	    -10.93234953	    -11.93229269	     -2.00436453
      0.63600000	     -2.83061470	      8.46993194	     15.75001678	     -0.49016275	      0.97715438	      0.17305588	     -7.99420811	     -9.90412478	    -13.75730026	    123.89562507	      2.16238659	     -4.27103276	      0.00000000	     46.18828206	     21.53961492	     14.98257642	     -2.21072827	     40.94762305	      0.71467084	     19.95572511	      0.00000000	     15.30938003	    -11.69830630	    -12.15530393	     -2.92160431
      0.64000000	     -2.45836816	      8.74576192	     15.42470856	     -0.46672483	      0.97571829	      0.17378461	     -6.33230886	    -10.85819317	    -12.28785991	    126.59584448	      2.20951431	     -3.02615409	      0.00000000	     45.90322892	     20.43593406	     14.81943351	     -2.43596524	     42.53817447	      0.74243120	     21.39791081	      0.00000000	     15.02079151	    -12.66755452	    -12.37010929	     -3.41799197
      0.64400000	     -1.99982887	      9.06751940	     15.77726837	     -0.44242940	      0.97453854	      0.17346191	     -5.07060150	    -11.80370031	    -11.48711504	    128.87112180	      2.24922539	     -1.67674249	      0.00000000	     45.71693070	     18.94611187	     14.93486360	     -1.86057620	     43.94182417	      0.76692951	     22.74173029	      0.00000000	     14.89026019	    -13.71692759	    -12.46978591	     -4.57807209
      0.64800000	     -1.68278149	      9.35745509	     15.75706921	     -0.41841435	      0.97323205	      0.17392962	     -3.32622707	    -12.76108236	    -10.30545687	    131.10737579	      2.28825538	     -0.28515922	      0.00000000	     45.82300653	     17.60384003	     14.87217719	     -1.47249550	     45.15709358	      0.78813996	     23.80033612	      0.00000000	     14.80835801	    -14.59470570	    -12.64210486	     -5.30615658
      0.65200000	     -1.29703276	      9.55409321	     15.75947426	     -0.39398480	      0.97240701	      0.17428122	     -1.53964640	    -13.53641255	     -8.95913080	    133.02639065	      2.32174851	      0.71252054	      0.00000000	     45.86139392	     16.00606883	     14.67410176	     -0.98403808	     46.07202360	      0.80410850	     24.42281124	      0.00000000	     14.68277686	    -15.44283933	    -12.67361087	     -6.09701093
      0.65600000	     -1.19165425	      9.64890760	     15.84473295	     -0.36928217	      0.97152583	      0.17436986	      0.65760662	    -14.29654134	     -7.55776772	    134.73886917	      2.35163690	      2.28397759	      0.00000000	     46.16710021	     14.55457475	     14.48641402	     -0.42213157	     46.66783838	      0.81450743	     25.28460355	      0.00000000	     14.60396214	    -15.90481447	    -12.61655707	     -6.85507158
      0.66000000	     -1.22398036	      9.54991559	     16.05004789	     -0.34432970	      0.97086023	      0.17436518	      3.18014950	    -14.90274995	     -6.31162560	    136.23931384	      2.37782460	      4.45779935	      0.00000000	     51.30646588	     13.13185192	     14.13519786	      0.34629707	     47.07073449	      0.82153930	     25.76621971	      0.00000000	     15.34834623	    -16.11333752	    -12.40037525	     -7.63582253
      0.66400000	     -1.15427863	      9.34551611	     16.31597510	     -0.31939881	      0.97056683	      0.17417907	      5.56506369	    -15.32877390	     -5.05329131	    137.32451922	      2.39676500	      5.05197391	      0.00000000	     51.14724271	     11.50579220	     13.66677212	      1.34470621	     47.15973020	      0.82309257	     25.90755041	      0.00000000	     15.31796029	    -16.39383461	    -12.01595449	     -8.47175348
